<?xml version="1.0" encoding="UTF-8"?>
<svg version="1.1" xmlns="http://www.w3.org/2000/svg" width="128" height="128">
<path d="M0 0 C10.89 0 21.78 0 33 0 C33 10.56 33 21.12 33 32 C31.35 32 29.7 32 28 32 C27.67 24.74 27.34 17.48 27 10 C3.57 33.43 -19.86 56.86 -44 81 C-45.32 80.01 -46.64 79.02 -48 78 C-46.71403737 75.17615633 -45.37292429 73.12431572 -43.177948 70.93743896 C-42.60303619 70.35977783 -42.02812439 69.7821167 -41.43579102 69.18695068 C-40.80713135 68.56548157 -40.17847168 67.94401245 -39.53076172 67.30371094 C-38.86722687 66.63988403 -38.20369202 65.97605713 -37.52005005 65.29211426 C-35.3279703 63.10142667 -33.12889375 60.91790636 -30.9296875 58.734375 C-29.40753361 57.21595163 -27.88582098 55.69708579 -26.36453247 54.17779541 C-22.36090745 50.1818037 -18.35131241 46.19185471 -14.3404541 42.203125 C-10.24809371 38.13122945 -6.16139471 34.05366074 -2.07421875 29.9765625 C5.94498563 21.97880272 13.97102111 13.98794708 22 6 C11.11 5.505 11.11 5.505 0 5 C0 3.35 0 1.7 0 0 Z " fill="#000000" transform="translate(74,24)"/>
</svg>
