<svg version="1.1" id="Layer_1" xmlns="http://www.w3.org/2000/svg" x="0" y="0" viewBox="0 0 532.3 560.5" style="enable-background:new 0 0 532.3 560.5" xml:space="preserve"><style>.st1{opacity:.33}.st2{fill:#c9c9c9}.st3{opacity:.25}.st4{fill:#ffffff}</style><g id="Ñëîé_2" style="opacity:.7"><g class="st1"><path class="st2" d="M31.3 244.2c-25.5-43.3 35.2-61.9 19-124 30.4 32.9-22.2 78.5-19 124z"/></g><g class="st1"><path class="st2" d="M35.9 335.5c-9.2-35.2-21.3-120.2-11.3-161.3-24.3 31.5-5 130.2 11.3 161.3z"/></g><g class="st1"><path class="st2" d="M104.6 447.5c-24.2-15-46.8-32.7-49.3-66.3-6.6 12.2 14.2 73.3 49.3 66.3z"/></g><g class="st3"><path class="st2" d="M401.3 191.5c-6.8 89.9-79.2 188-175.3 213-82.5 32.1-147.2 31.4-147 33.7 148.7 4.6 341.9-55.3 322.3-246.7z"/></g><g class="st3"><path class="st2" d="M392 132.5c-1.3-.2.2 19.7-11 43.7-28.3 60.6-105.7 78.9-102.7 86.7 83.3 5.1 127.4-69.8 113.7-130.4z"/></g><g class="st1"><path class="st2" d="M119 324.5c-16.5 6.2-40.7 20.2-66 16 2.4 3.1 15.4 7.3 15 19.7 6.1 5.7 52.9-32.9 51-35.7z"/></g><g class="st1"><path class="st2" d="M132.5 127.7c15.5-24.7 22.6-21 72.2-18.5 5.1.1 19.9.4 20-.5-33.7-5.4-94-25.6-92.2 19z"/></g><g class="st1"><path class="st2" d="M17.9 153.8c5.7-20.1 25.8-12.8 33.7-14.2-12.5-11.9-42.3-6.6-33.7 14.2z"/></g></g><g id="Ñëîé_3"><path class="st4" d="M102.5 447.4c-.1.1-9.6-5.4-9.7-5.4-.9-1.1 35.9-5.7 36-6.1 1.6.7-26.4 11.1-26.3 11.5zm-8.9-5.5 8.9 5 24.3-10.2-33.2 5.2z"/><path class="st4" d="M128.8 436.3c-1.4-.5 45.3-15.5 44.4-14.3-23.9 14.9-16.2 12.9-44.4 14.3zm42.4-13.6-40.5 13c25.5-1.1 19.1.4 40.5-13z"/><path class="st4" d="M192.8 422.3c0-.4-21 .6-19.8-.6.2.4 58.6-21.1 57.6-19.3-.1 0-37.7 19.9-37.8 19.9zm-18.2-.7 18.1.1 34.9-18.4-53 18.3z"/><path class="st4" d="M230.6 402.4c-1.4-.5 60.5-22 59.8-20.8l-19.6 15.9c-.1.1-40.1 4.8-40.2 4.9zm58.3-20.3-56.1 19.5 37.7-4.5 18.4-15z"/><path class="st4" d="M290.1 381.6c-1.2-.4 39.3-22 38.8-20.8-20.2 22.7-8.1 18.5-38.8 20.8zm37.7-20-36.5 19.5 21.3-1.6 15.2-17.9z"/><path class="st4" d="M328.8 361c-1.4-.5 26.6-21.4 26.5-21.8.2-.2.5.1.4.3-.2.1-14.7 20.5-14.9 20.4-.1.1-12 1.1-12 1.1zm25.4-20.2-24.6 19.7 11-.9 13.6-18.8z"/><path class="st4" d="M355.5 339.7c-.7 0 21.9-40.1 22.4-38.8-.1.2-4.3 30.7-4.7 30.7-.2 0-17.6 8.1-17.7 8.1zm21.6-37.6L356 338.9l16.8-7.7 4.3-29.1z"/><path class="st4" d="M377.6 301c-.6 0 16.1-47.2 16.8-46-.1.2-.3 30.7-.5 30.8-.2.1-16.1 15.3-16.3 15.2zm16.3-44.5-15.7 43.4 15.3-14.3.4-29.1zm-307 189.2c-.2.2-13.5-9-13.6-9-.2-.1-.1-.5.2-.5l19.4 5.2c1.1.5-5.8 4-6 4.3zm-12.1-8.6 12.1 8 5.3-3.3-17.4-4.7z"/><path class="st4" d="M73.4 436.7c-.1-.2-14.1-18.1-12.7-17.9.1.2 11.1 6 11.1 6.2-.1.3 2.3 11.6 1.6 11.7zm-11.8-16.9L73 435.5l-1.7-10.2-9.7-5.5z"/><path class="st4" d="M60.7 419.3c-.3.2-4.9-22.2-3.8-21.2.1.2 6.2 5.8 6.1 6.1-.3.2-1.8 15.1-2.3 15.1zM57.1 399l3.5 18.5 1.9-13.3-5.4-5.2z"/><path class="st4" d="M56.7 398.5c-.1-.1-10.6-32.3-9.1-31.5 0 .1 9.6 16.2 9.5 16.3-.2.3.3 15.1-.4 15.2zm-8.5-29.4 8.3 27.5.1-13.2-8.4-14.3z"/><path class="st4" d="M47.4 367.4c0-.1-13.5-33.6-11.8-32.9 0 .1 10.9 16.9 10.8 17-.2.3 1.6 15.8 1 15.9zm-11-30.7 10.7 28.6-1.1-13.7-9.6-14.9zm66 111.2-15.5-2.2c-.2 0-.3-.3-.1-.5.3 0 6-4 6.3-3.7-.2.2 11.1 6.2 9.3 6.4zm-14.7-2.6 13.6 1.9-8.4-5.2-5.2 3.3z"/><path class="st4" d="M102.4 447.9c-1.5-.8 26.4-11.6 26.3-12 .4-.4 7.4 7.1 7.7 7.1.7 1-33.8 4.4-34 4.9zm26.3-11.5-24.6 10.8 31.5-4.1-6.9-6.7z"/><path class="st4" d="M136.2 443.5c-.2.1-7.4-7.1-7.6-7.2-.7-1.1 23.6-1.4 23.7-1.8 1.5.4-16.1 8.8-16.1 9zm-6.8-7.2 6.9 6.6 14.9-7.8-21.8 1.2z"/><path class="st4" d="M136.2 443.5c-1.5-.6 16.1-8.5 16-8.9.1 0 22 3.1 22.2 3.1 1.4 1.1-38.2 5.3-38.2 5.8zm16.2-8.4-14.8 7.7 34.9-4.9-20.1-2.8z"/><path class="st4" d="M152.3 435c-1.5-.6 20.8-13 20.6-13.4l19.8.2c1.6.9-40.4 12.8-40.4 13.2zm20.9-12.9-19 11.8 37.1-11.7-18.1-.1z"/><path class="st4" d="m174.3 438.1-22-3c-1.3-1 40.4-12.8 40.5-13.3 1.4.3-18.5 16-18.5 16.3zm-20.9-3.4 20.8 2.9 17.5-14.9-38.3 12z"/><path class="st4" d="M174.3 438.1c-1.4-.4 18.4-15.8 18.3-16.3.4-.5 11.3 10.7 11.6 10.7.7 1.1-29.8 5.2-29.9 5.6zm18.5-15.8-17.6 15.1 28.4-4.8-10.8-10.3z"/><path class="st4" d="M204 433c-.3 0-11.3-10.7-11.5-10.8-.4-1.6 30 9.2 30.3 8.8 1.4 1.2-18.8 1.6-18.8 2zm-10.3-10.4 10.4 9.9 17.4-1.4-27.8-8.5z"/><path class="st4" d="M237 437.6c-15.9-7.7-21.6-4.9-.8-9.8.6-.5.8 9.4 1 9.5 0 .1-.1.2-.2.3zm-13.4-6.3 13.1 5.6-.6-8.6-12.5 3zm-30.8-9c-1.2-.5 38.2-21 38-20.1l-5.6 14.6c-.1.3-32.2 5.3-32.4 5.5zm37.3-19.7-35.8 18.8 30.5-5 5.3-13.8z"/><path class="st4" d="M262.5 411.6c-.1-.4-33.2-8.7-32-9.7.3.3 40.7-5.7 40.3-4.5-.2.1-8 14.3-8.3 14.2zm-30.7-9.4 30.6 8.8 7.8-13.5-38.4 4.7z"/><path class="st4" d="M270.6 397.5c-1.4-.5 19.5-15.9 19.4-16.3.1-.1 22.6-1.6 22.7-1.7 1.5.8-42.1 17.6-42.1 18zm19.6-15.9-18.1 14.8 39.1-16.3-21 1.5z"/><path class="st4" d="M312.8 380c-1.2-.3 16-19 15.8-19.4.1-.2 11.9-1 12.1-1.1 1.4.6-28 20.1-27.9 20.5zm16.1-19-14.7 17.4 25.6-18.4-10.9 1z"/><path class="st4" d="M287.5 399.8c.1-.4-18.3-1.8-17-2.8.3.4 43-18.8 42.4-17.1-.2.1-25.2 19.9-25.4 19.9zm-15.9-2.6 15.9 2.1 23.7-18.6-39.6 16.5z"/><path class="st4" d="M312.8 380c-1.4-.6 28-20.1 27.8-20.5.2-.2.5.1.4.3-13.9 21.7-3.4 16.6-28.2 20.2zm27.1-19.4-26.2 18.8 16.6-2.1 9.6-16.7z"/><path class="st4" d="M340.7 360c-1.2-.2 14.7-20.3 14.6-20.7.1-.2.4-.1.5.1-.1.3 2.1 12.7 1.6 12.9-.2 0-16.6 7.7-16.7 7.7zm14.6-19.9-13.8 19 15.4-7.2-1.6-11.8zm17.8-8.5c-.4-.1 3.9-31.4 4.7-31l9.4 9.5c.1.5-13.7 21.2-14.1 21.5zm4.7-30.3-4.3 28.9 13.2-19.9-8.9-9zM245 424.3c-1.4-.5 17.5-12.8 17.3-13.2.2-.1 13.9 1.9 14.1 1.9 1.2.9-31.4 10.9-31.4 11.3zm17.6-12.7-16.1 11.7 28.8-10-12.7-1.7zm24.9-11.8c-.2 0-.3-.3-.1-.5.4.2 25.4-20.9 25.6-19.6-.2.2-2.4 19-3 18.9 0 .1-22.5 1.2-22.5 1.2zm24.9-19.4-24.1 18.9 21.5-1 2.6-17.9z"/><path class="st4" d="M351.3 367.6c-.9-.1 5.8-15.3 5.6-15.6.1-.5 12.8.4 13 .2 1.3.5-18.6 15-18.6 15.4zm6-15.3-5.5 14.2 17.4-13.9-11.9-.3zM92.9 442c-1.2-.4 12.2-13.5 12.1-13.9.2-.4 23.6 7.8 23.9 7.8 1.2 1.1-36 5.6-36 6.1zm12.3-13.5-11.7 12.9 34.2-5.4-22.5-7.5zm67.9-6.4c-.1-.4-30.9-6-29.7-7.1.3.4 47.8-14.8 47.3-13.3-.2.1-17.3 20.6-17.6 20.4zm-28.7-6.9 28.6 6.4 16.8-19.6-45.4 13.2zm-72.8 10.1c-.1 0-.2-.1-.2-.2.1-.3-1.2-10.8-.8-11 .3-.2 19.4 8.8 19.7 8.8 1.1 1-18.8 2.2-18.7 2.4zm-.7-10.6.9 10.1 17.3-1.9-18.2-8.2zm2.3-70.1c-.1.1-12.5-6.3-12.6-6.3-1-1.1 27.4-4.5 27.5-4.9 1.5.3-14.9 11.1-14.9 11.2zm-11.6-6.3 11.7 5.8 13.9-10-25.6 4.2z"/><path class="st4" d="M53.3 342c-.4 0-5.1-7.5-5.4-7.6-.1-.2.1-.5.3-.4 0 .3 13.8 3.7 12.6 4.5-.1-.1-7.4 3.5-7.5 3.5zm-4.6-7.3 4.6 6.8 6.7-3.2-11.3-3.6zm42.1 7.8c-.5.1-2.7-8.5-3-8.7 0-.1 0-.3.2-.3l21.3-4.3c1.6.5-18.5 13-18.5 13.3zm-2.4-8.6 2.5 7.9 17.3-11.9-19.8 4z"/><path class="st4" d="M82.7 352.8c-.2 0-9.4-8.1-9.6-8.2-.2-.1-.1-.4.1-.4.2.4 18.4-3 17.8-1.8-.2.1-8 10.5-8.3 10.4zm-8.9-8.2 8.8 7.6 7.6-9.6-16.4 2z"/><path class="st4" d="M73.2 344.7c-.1-.4-21-2-20-3.2.2 0 7.4-3.7 7.7-3.6-.2.3 14 6.3 12.3 6.8zm-19.1-3.1 17.6 2.4-11-5.5-6.6 3.1z"/><path class="st4" d="M68.1 353.6c-.1-.3-16.1-11.8-14.8-12.1.2.3 20.3 2.3 20.1 3-.1.2-5 9-5.3 9.1zm-13.9-11.5L68 353l4.8-8.4-18.6-2.5zm55.2-12.4c-.3 0-.4-.4-.1-.5.3.3 19.7-9.2 19.4-7.6-.2.1-5.5 8-5.8 7.9l-13.5.2zm18.3-7.7-17.1 7.2 12.1-.2 5-7z"/><path class="st4" d="M107 346.9c-.1-.3-17.1-4.1-16.3-4.9.4.2 18.8-13.8 19-12.5-.3.3-2.1 17.5-2.7 17.4zm-15.6-4.8 15.4 4.2 2.3-16.4-17.7 12.2zm-12.2 21.6c-13.8-13.5-16.9-10 3.5-11.5.2 0 .3.2.2.3-.2.3-3.3 11.1-3.7 11.2zm-10.5-10.1 10.4 9.5 3.3-10.2-13.7.7zm-11-40.5c-.1 0-.3-.1-.2-.3l1-7.5c0-.2.3-.3.4-.1 8 8.5 13.3 7.9-1.2 7.9zm1.3-7.3-.9 6.7 8.1-.1-7.2-6.6z"/><path class="st4" d="M48.6 316.9c-.7.3 1.1-8.9 1-9-.1-1 8.1 4.8 8.3 4.6.2.1.2.4 0 .4-.2.2-9.2 4-9.3 4zm1.4-8.5-1.1 7.9 8.3-3.5-7.2-4.4z"/><path class="st4" d="M44.5 329c-.5 0-1.7-12.9-1.9-13.1 0-.2.1-.3.3-.3.1.2 6.3.4 6 1.1-.3.2-4 12.4-4.4 12.3zm-1.4-12.8 1.4 11.5 3.7-10.8-5.1-.7zm23.6-3.2c-.2.1-7.9-7.4-8.1-7.5-.2-.2 0-.5.2-.4l17.6 2.3c.2 0 .3.4.1.5-.1 0-9.7 5-9.8 5.1zm-7.1-7.3 7.2 6.7 8.8-4.6-16-2.1z"/><path class="st4" d="M91.4 309.8c0-.3-16.3-1.5-15.1-2.5.2 0 8.1-3.7 8.4-3.5-.1.3 8.1 5.8 6.7 6zm-14.1-2.3 13.2 1.7-6-4.8-7.2 3.1z"/><path class="st4" d="M108.4 312.1c0-.4-18.4-1.6-17-2.7.3.1 12.8-3.2 13-2.8-.2.2 5.1 5.5 4 5.5zm-15.6-2.6 15 2-3.7-4.5-11.3 2.5z"/><path class="st4" d="M126.3 314.4c-.2-.3-18.4-1.9-18.2-2.7 0-.3 14-4.8 14.2-5 .1 0 .2 0 .3.1-.1.3 4.8 7.8 3.7 7.6zm-16.8-2.7 16.4 2.1-3.6-6.5-12.8 4.4z"/><path class="st4" d="M126.3 314.4c-.4.1-4-7.1-4.2-7.3-.1-.2 0-.4.2-.4l27.8 3.6c1.7 1.2-23.8 3.7-23.8 4.1zm-3.4-7.1 3.6 6.5 21.9-3.2-25.5-3.3zM55 301.8c-.3 0-8.7-10.5-8.9-10.6-.1-.2 0-.4.3-.4l10 1.3c.1 0 .2.1.2.3l-1.3 9.2c0 .1-.1.2-.3.2zm-8.1-10.4 7.9 9.6 1.2-8.4-9.1-1.2z"/><path class="st4" d="M39.8 303.1c-.2 0-.3-.2-.2-.4l6.6-11.8c.1-.2.3-.2.4 0l8.7 10.5c.6.9-15.4 1.4-15.5 1.7zm6.6-11.6-6.2 11.1 14.3-1.2-8.1-9.9zm19.5 7c-.2.1-9.6-5.9-9.7-5.9-.2-.1-.2-.3 0-.4.3.1 14.5-8.8 14.8-8.2 0 .3-4.7 14.2-5.1 14.5zm-9.1-6.2 9 5.5 4.5-13.3-13.5 7.8z"/><path class="st4" d="M65.9 298.5c-.2 0-.3-.2-.2-.3.3-.2 4.5-14.6 5.2-14.3l19.8 7.1c1.2.9-24.7 7.1-24.8 7.5zm5-14.2-4.6 13.5 23.4-6.8-18.8-6.7z"/><path class="st4" d="M102.7 301.2c-.2 0-12.2-9.7-12.4-9.8-.2-.2 0-.5.2-.4 0 .4 21 5.7 19.9 6.6 0 0-7.6 3.6-7.7 3.6zm-11-9.4 11 8.8 6.9-3.2-17.9-5.6zm-32.9 13.8c-.1 0-.2 0-.2-.1l-3.8-3.8c-.1-.1-.1-.4.1-.4l10.9-3.3c.2-.1.4.2.2.4-.1.2-7 7.1-7.2 7.2zm-3.3-3.9 3.3 3.3 6.2-6.2-9.5 2.9z"/><path class="st4" d="M76.4 307.9c-.2 0-10.5-9.3-10.7-9.4-.2-.2 0-.5.2-.4 0 .4 19.7 5.4 18.6 6.3l-8.1 3.5zm-9.4-9 9.5 8.5 7.4-3.2-16.9-5.3z"/><path class="st4" d="M84.6 304.4c-1.1.2 6-13.2 5.8-13.3.3-.9 12.2 9.7 12.6 9.6.7 1-18.3 3.3-18.4 3.7zm6.1-12.8L85 303.8l17.2-3-11.5-9.2zm-50.8 23.1c-.7.3-.1-11.7-.3-11.8-.1-1 10.2 5 10.4 4.9.2.1.2.3 0 .4-.1 0-10 6.5-10.1 6.5zm.1-11.4.1 10.7 9.2-6-9.3-4.7zm82.4 4c-.2 0-12-9.7-12.2-9.8-.7-1.6 17.6 5.5 17.8 5.1.2.1.2.3.1.4-.2.2-5.4 4.3-5.7 4.3zm-10.8-9.3 10.8 8.8 5-3.7-15.8-5.1zm282.5-42.7c-.3.1-13.9-21-14.1-21.1-.3-.7 19.5-10.1 19.6-10.5 1-.1-5.1 31.4-5.5 31.6zm-13.5-21.1 13.4 20.2 5.4-30-18.8 9.8zM83.3 375.8c-19.3-3.3-18.9 1.4-3.8-12.1.1-.1.4 0 .4.2l3.7 11.6c0 .1-.1.3-.3.3zm-14.4-2.4 14.1 1.9-3.4-10.9-10.7 9zm161.7 29c-.2-.2-18.5-8.6-18.2-9.2 0-.1 31.5-18 31.5-18.1 1.4-.3-13.3 27.1-13.3 27.3zm-17.5-9.2 17.3 8.6 13-25.9-30.3 17.3z"/><path class="st4" d="M290.1 381.6c-.2-.3-46.5-5.7-46.4-6.4.3-.3 39.7-11.7 40-11.2-.1.3 7.6 17.7 6.4 17.6zm-44.9-6.5 44.5 6-6.4-16.7-38.1 10.7z"/><path class="st4" d="M244 375.5c-.1-.3-26.3-28.6-25-28.9.2.1 28.8 3.1 28.9 3.4-.2.3-3.3 25.3-3.9 25.5zm-24.4-28.4 24.3 27.6 3.5-24.4-27.8-3.2zm64 17.2c-.5-.2 1.2-25.3 1.6-25.5.1-.1 43.6 21.7 43.7 21.7 1 1.2-45.2 3.3-45.3 3.8zm1.8-24.8-1.6 24.3 44-3.2-42.4-21.1z"/><path class="st4" d="M355.5 339.7c-.2-.4-71.3.5-70.4-.8.3 0 34.3-23.3 34.6-23-.1.5 37.2 23.1 35.8 23.8zm-69.5-.9 68.6.3-35-22.7-33.6 22.4z"/><path class="st4" d="M319.6 316.4c-1.1-.2 19.7-31.7 19.5-32 .2-.6 38.3 16.3 38.6 16.2 1.1 1-58 15.4-58.1 15.8zm19.8-31.6-19.3 30.9 56.7-15-37.4-15.9zm-55.8 79.5c-.2-.3-36.3-13.7-36.1-14.3.3-.2 37.7-11.5 38-11-.3.3-1.3 25.2-1.9 25.3zm-35.1-14.2 34.9 13.6 1.6-24.3-36.5 10.7z"/><path class="st4" d="M285.2 339.3c-.2-.3-19.6-42.4-18.6-42.6.2.3 35.9 4 35.5 4.9-.3.1-16.5 37.8-16.9 37.7zm-18.3-42.1 18.3 41.2 16.3-36.8-34.6-4.4zm72.3-12.4c-1-.1 15.3-36.5 15.1-36.8.1-.6 39.6 7 39.8 6.9 1.3.7-54.8 29.4-54.9 29.9zm15.6-36.5-15 35.6 53.6-28.8-38.6-6.8z"/><path class="st4" d="M319.6 316.4c-.2-.3-18.2-14.5-17.9-15.1.3.2 38-18.2 37.8-16.7-.2.1-19.6 31.7-19.9 31.8zm-17.3-14.9 17.2 14.2 19.1-30.6-36.3 16.4z"/><path class="st4" d="M339.2 284.8c-.3-.3-22.1-24.9-21.7-25.4 0-.1 37-11.4 37.1-11.5.9 0-15.2 36.6-15.4 36.9zm-21.1-25.2 21.1 24.4 15-35.6-36.1 11.2z"/><path class="st4" d="M354.6 248.3c-.3-.1-20.4-25.7-20.4-26.1 0-.3 33.2-13.1 33.3-13.3 1 0-12.6 39.3-12.9 39.4zm-19.9-26 19.7 25.2 12.6-38-32.3 12.8zm65.1 1.9c-.3-.3-17.1-15.9-16.9-16.5l21.7-17.2c1-.3-4.6 33.6-4.8 33.7zm-16.3-16.3 16.1 15.6 4.8-32.2-20.9 16.6z"/><path class="st4" d="M317.7 259.8c-.5.1-11.3-37.6-11.5-37.8-.3-.9 28 .3 28.2 0 .8.3-16.6 37.5-16.7 37.8zm-11-37.6 11 36.7 16.3-36.3-27.3-.4zm-59 128.1c-.4-.1-21.8-37.7-21.8-38.1 0-.3 40.5-15.3 40.6-15.5 1 0-18.6 53.4-18.8 53.6zm-21.3-37.9 21.2 37 18.5-52.1-39.7 15.1z"/><path class="st4" d="M301.9 301.7c-.4.1-15-36-15.2-36.2-.3-.8 30.9-6 31-6.3.8.2-15.6 42.2-15.8 42.5zm-14.8-36 14.7 35.1 15.4-40.9-30.1 5.8z"/><path class="st4" d="M286.8 265.7c-.2-.3-28.2-32.8-27.8-33.3 0-.1 47.2-10.7 47.3-10.8 1 .2-19.3 43.9-19.5 44.1zm-27.2-32.9 27.1 32.2 19.2-42.8-46.3 10.6z"/><path class="st4" d="M306.4 222.2c-.1-.3-27.7-36.5-26.7-36.8.3.2 46.4-2.5 46.6-2.1 0 .4-19.6 38.6-19.9 38.9zm-26.2-36.4 26.2 35.7 19.2-37.9-45.4 2.2zm-13.7 111.4c-.2-.1-8.3-65.2-7.1-64.7l27.6 32.9c.2.4-20.2 31.5-20.5 31.8zm-7-63.8 7.2 62.8 19.8-30.7-27-32.1z"/><path class="st4" d="M266.5 297.2c-.3-.3-37.9-19.9-37.6-20.5 0 0 30.1-44.1 30.1-44.2.9-.6 7.9 64.6 7.5 64.7zm-37-20.6 36.8 19.8-7.2-63.2-29.6 43.4z"/><path class="st4" d="M259.2 232.9c-.2-.3-26.5-27.8-25.8-28.4.4.1 46.2-19.7 46.5-19 0 .3-20.3 47.2-20.7 47.4zm-25.3-28 25.2 27.4 20.1-46.1-45.3 18.7zM219 347c-.3-.2-29-20.8-28.8-21.3 0-.2 35.7-13.4 35.8-13.5 1-.1-6.9 34.5-7 34.8zm-28-21.2 27.9 20.5 6.9-33.6-34.8 13.1z"/><path class="st4" d="M212.6 393.5c-.3.2-30.1-34.5-30.3-34.5-.6-.8 36.5-12.1 36.6-12.5.9-.1-6.1 46.6-6.2 46.9l-.1.1zM182.9 359l29.5 33.7 6.2-45.5-35.7 11.8zm-77.7 69.5c0-.3-18.8-20.9-17.5-21.2.1.4 40.2 7.3 39.2 8.4-.1 0-21.6 12.9-21.7 12.8zm-16.9-20.6 16.9 20 20.9-12.3-37.8-7.7z"/><path class="st4" d="M70.7 414.6c-.8 0 2.8-19.8 2.6-20.1 0-.2.3-.3.4-.1l14.1 13.1c.7.7-17 6.7-17.1 7.1zm3-19.6L71 414l16.2-6.5L73.7 395z"/><path class="st4" d="M126.8 415.7c-.1-.4-40.1-7.3-39.3-8.4.4.1 26.4-22.1 26.9-21.1-.3.4 13.4 29.5 12.4 29.5zm-38.6-8.3 38.1 7.7-12.3-28.4-25.8 20.7zm102.3-5.6c-.2 0-9-43.7-7.8-43.1 0 .4 30.6 34.3 30.1 34.8-.1 0-22.2 8.2-22.3 8.3zm-7.6-42.1 7.8 41.5 21.5-8.1-29.3-33.4z"/><path class="st4" d="M143.4 415.5c-.7-.2 3.7-27.1 3.7-27.6.2-.2 43.2 13.4 43.4 13.4 1.2 1-47 13.8-47.1 14.2zm4.1-27-3.8 26.4 45.9-13.4-42.1-13zm-74 6.2c-.2 0-.3-.2-.2-.4.3-.1 9.6-19.3 10.1-19.1l30.8 10.8c1.2 1.1-40.7 8.3-40.7 8.7zm9.9-18.9-9.5 18.3 39.2-7.9-29.7-10.4zm99.1-16.7c-.4-.2-18.9-19.2-19-19.6-.1-.3 26.7-13.8 26.8-14 1.1-.1-7.6 33.3-7.8 33.6zm-18.3-19.6 18.2 18.8 7.7-32.1-25.9 13.3zm61.9-27c-.2-.3-31.8-19.1-31.1-19.8.4.1 34-16.8 34.3-16.1-.2.4-2.4 36.1-3.2 35.9zM195.7 293l30.2 18.9 3-34.7-33.2 15.8zm198-7.1c-.3 0-.3-31.7.6-31 0 .3 10.4 15.3 10.1 15.6-.2.1-10.3 15.6-10.7 15.4zm.7-30-.4 29 10-14.5-9.6-14.5z"/><path class="st4" d="M427.4 274.8c-.1-.4-23.9-3.6-23.2-4.6.4 0 9.7-11.3 10.2-10.8-.3.4 14.4 15.2 13 15.4zm-22.7-4.6 22 4-12.6-14.2-9.4 10.2zm45.3 71.4c-.5.1-8.9-26.9-9.2-27.1-.1-.1 7.9-28.5 7.9-28.7 1.2-1.1 1.5 55.7 1.3 55.8zm-8.6-27.2 8.4 25.3-1-52.1-7.4 26.8z"/><path class="st4" d="M450.6 386.4c-.5.1-6.8-24.1-7-24.3-.1-.1 6.2-20.8 6.2-20.9 1.1-1 1.1 45.3.8 45.2zm-6.5-24.3 6.2 22.2-.5-41.4-5.7 19.2z"/><path class="st4" d="M464.1 437.7c-.2 0-14.3-12.2-14.4-12.2-.3-.1.7-39.2.6-39.3.8-1.3 14.3 51.5 13.8 51.5zm-14-12.5 13.6 11.5-12.9-48.7-.7 37.2z"/><path class="st4" d="m497.5 468.9-15.9-2.2c-.3.1-17.5-29-17.7-29.1-.1-1.5 34.6 31.1 33.6 31.3zm-15.7-2.7 15 2.1-31.5-29.4 16.5 27.3zm-283.7-11.6c-.1 0-.1 0-.2-.1.2-.2-11.6-13.4-10-13.2l16.9 6.4c.2.1.2.3.1.4-.2.1-6.4 6.5-6.8 6.5zm-9.5-12.6 9.6 11.9 6.1-6-15.7-5.9z"/><path class="st4" d="M209.2 488.7c-.5.1-11.1-34.2-11.3-34.3-.2-.3 6.6-6.5 6.7-6.7.8-.4 4.9 40.8 4.6 41zm-10.8-34.3 10.3 31.7-4.1-37.6-6.2 5.9z"/><path class="st4" d="M220.7 527.2c-4.1-14.2-9.2-30.6-11.5-39.3 1.9 6.4 19.8 22.1 20.1 22.3.5.3-8.4 16.6-8.4 16.9 0 .1-.1.2-.2.1zm-9.7-34.9c1.6 5 8.7 30.1 9.8 34l8-15.8c-1.5-1.4-13.1-11.8-17.8-18.2z"/><path class="st4" d="M225.1 560.5c-.1-.1-5.4-34.2-4.2-33.7 0 .3 14.5 15.6 14.1 16-.2.1-9.5 17.8-9.9 17.7zm-4.1-32.8 4.2 31.8 9.2-16.8-13.4-15zm294.2-34.5c0-.3-19.1-24.8-17.6-24.8 0 .4 35.7 20.2 34.5 20.9 0 0-16.8 4-16.9 3.9zm-16.8-23.7 16.9 23.3 16.1-3.7-33-19.6zm-289.2 19.2c-.1-.1-5.4-41.6-4.2-41 0 .2 13.7 19.7 13.4 20-.2.1-8.9 21.1-9.2 21zm-4.1-39.8 4.2 38.6 8.5-19.9-12.7-18.7z"/><path class="st4" d="M229.1 510.6c-.2-.2-11.9-43.5-10.8-43.3.1.3 20.5 12.1 20.3 12.6-.3.2-9 30.9-9.5 30.7zm-10.5-42.5 10.6 41.4 8.9-29.5-19.5-11.9z"/><path class="st4" d="M234.8 542.9c-.3-.1-6.5-32.8-5.6-32.7.1.4 24.1 11.8 23.7 12.5-.2.1-17.8 20.3-18.1 20.2zm-5.3-32 5.5 31.2 17.4-19.5-22.9-11.7z"/><path class="st4" d="M252.7 522.8c-.1-.3-15.4-43.2-14.2-43.1l30.6 16c.5.4-16 27-16.4 27.1zm-13.9-42.4 14 41.6 15.8-26-29.8-15.6z"/><path class="st4" d="M238.3 480.1c-.3-.1-3.7-26.6-2.8-26.3l28.3 14.4c1 .8-25.4 11.5-25.4 12l-.1-.1zm-2.5-25.7 2.8 25.1 24.6-11.1-27.4-14zm14 94.9c-.8 0 3-26.6 2.7-26.8.1-.9 21.4 8 21.8 7.8.8.6-24.4 18.8-24.5 19zm3.1-26.4-2.9 25.7 23.6-18-20.7-7.7zM450 341.5c-.2.2-15.6-10.4-15.7-10.3-.5-.2 6.6-16.5 6.5-16.8.1-.2.4-.2.5 0-.2.3 9.7 27.2 8.7 27.1zm-15.2-10.6 14.8 9.8-8.5-25.5-6.3 15.7z"/><path class="st4" d="M443.8 362.4c-.1.1-13.2-5.4-13.2-5.4-.5-.1 3.9-25.8 3.7-26.1.6-1.2 10.2 31.6 9.5 31.5zm-12.9-5.8 12.5 5.1-8.9-29.6-3.6 24.5z"/><path class="st4" d="M437.6 404.2c-.4.1 5.6-43.2 6.5-42.2 0 .2 6.9 24.1 6.8 24.3-.3.1-12.9 18.1-13.3 17.9zm6.3-40.9-6 39.7 12.4-16.9-6.4-22.8z"/><path class="st4" d="M440.1 439.1c-.2 0-3.5-36-2.3-35.3 0 .3 12.6 21.3 12.4 21.6-.3.2-9.8 13.8-10.1 13.7zm-2.2-34.1 2.4 33.1 9.3-12.9-11.7-20.2z"/><path class="st4" d="M457.2 463.3c-.2-.2-8.3-38.4-7.1-38.2.1.3 14.6 12 14.4 12.4-.3.2-6.9 25.8-7.3 25.8zm-6.9-37.3 7 36 6.6-24.4-13.6-11.6z"/><path class="st4" d="M447.5 477.6c0-.1-8.5-39.5-7.2-38.8 0 .3 17.5 24.1 17.1 24.5-.2 0-9.5 14.4-9.9 14.3zm-7-37.6 7.1 36.7 9.2-13.6-16.3-23.1z"/><path class="st4" d="M478.4 488.1c-.1-.3-22.4-24.9-21.2-25.3.2.3 24.8 3 24.7 3.7-.2.2-2.8 21.7-3.5 21.6zm-20.6-24.7 20.5 23.9 3.1-20.6-23.6-3.3z"/><path class="st4" d="m515.2 493.2-36.8-5.1c-.7-.1 3.2-21.4 3-21.7.2-.8 34.9 26.5 33.8 26.8zm-36.5-5.6 35.7 5-32.5-25.7-3.2 20.7z"/><path class="st4" d="M499.5 511.1c-.1-.4-40.9-20.1-39.7-20.9.2.1 18.7-2.8 18.8-2.5-.1.4 21.9 23.1 20.9 23.4zm-38.9-20.5 37.7 19.4-20-21.9-17.7 2.5zM427.4 323c-.4.1 4.2-33.5 5-32.6l8.9 23.9c.1.6-13.6 8.4-13.9 8.7zm4.9-31.5-4.6 30.7 13-8-8.4-22.7zM422.1 379c-.1-.1-9-41-7.8-40.4 0 .3 16.8 17.9 16.4 18.3-.1.1-8.2 22.1-8.6 22.1zm-7.5-39.4 7.6 38.3 8.1-21.1-15.7-17.2zm4.3 81.8c-.4-.1.5-29.5 1.3-29.3 0 .4 18.1 11.5 17.4 12.1-.1 0-18.5 17.2-18.7 17.2zm1.5-28.7-1.2 27.8 17.9-16.5-16.7-11.3z"/><path class="st4" d="M420.7 452.6c-.3-.1-2.6-32-1.6-31.6l21.1 17.7c.5.7-19.3 13.4-19.5 13.9zm-1.5-30.9 1.7 30.2 18.7-13-20.4-17.2z"/><path class="st4" d="M398.3 445.4c-.3-.1-2.6-47.5-1.6-47.1 0 .4 22.9 22.5 22.4 23-.2.1-20.5 24.2-20.8 24.1zm-1.5-46.3 1.8 45.4 20-23.3-21.8-22.1z"/><path class="st4" d="M403.5 474.6c-.1-.3-30.9-22.1-29.9-22.7.3.2 24.9-7.5 25-6.8-.3.2 5.7 29.4 4.9 29.5zm-29.3-22.4 29 21.6-5-28.3-24 6.7zm-4.4-51.9c-.8-.1 24.7-35.2 25.1-34.3l1.9 32.4c0 .8-26.7 1.7-27 1.9zm24.6-33.5-24.1 33 25.9-1.5-1.8-31.5z"/><path class="st4" d="M359.9 432.6c-.2-.3-27-22.9-26.7-23.4 0-.2 36.5-9.3 36.6-9.4.9.1-9.7 32.5-9.9 32.8zm-26-23.1 25.9 22.4 9.7-31.5-35.6 9.1zm113.6 68.1c-.2-.4-44.7-2.3-44.2-3.4.4 0 17-22.6 17.6-22-.2.3 28 25 26.6 25.4zm-43.5-3.5 42.9 2.9-26.1-24.3-16.8 21.4zM430.7 501.4c-.2-.4-43.9.4-43.5-.6.4-.1 15.8-27.3 16.5-26.7-.2.4 28.4 26.9 27 27.3zm-42.8-.7 42.2.3-26.5-26.2-15.7 25.9zM269 496.1c-.3-.1-6.1-28-5.2-27.9l29.3 11.9c.7.7-23.9 15.7-24.1 16zm-4.9-27.3 5.1 26.6 23.3-15.1-28.4-11.5z"/><path class="st4" d="M298.1 512.8c-.1-.3-30-16.5-29.2-17.2.4.2 24.1-16.4 24.4-15.4-.3.4 5.5 32.6 4.8 32.6zm-28.6-17 28.3 16.3-4.9-31.4-23.4 15.1z"/><path class="st4" d="M293 480.5c-.4-.1-.9-40.6-.1-40.3l39.6 27.1c.9 1-39.4 12.7-39.5 13.2zm.1-39.6.2 39.1 38.6-12.5-38.8-26.6zm134.2-166.1c-.6-.3-3.9-14.8-3.9-15.5.2-.3 27.6 3.4 27.9 3.3 1.3.8-23.9 11.9-24 12.2zm-3.3-15 3.5 14.4 22.9-11.1-26.4-3.3z"/><path class="st4" d="M451.3 263.2c-.3 0-5.7-12.5-5.9-12.6-.4-.8 27.8-7.6 27.9-7.9 1.5.3-22 20.1-22 20.5zm-5.3-12.6 5.4 11.9 21-19.1-26.4 7.2zm26.6-8.1c-.3-.1-14.6-9.9-14.3-10.4.3.2 27.2-16.9 27.2-15.4-.3.1-12.6 25.8-12.9 25.8zm-13.7-10.3 13.6 9.7 12.1-24.7-25.7 15zm26.4-16.4c-.4.1-7.9-14.6-8.2-14.7-.2-.2 16.8-32.1 16.8-32.4 1.4-.9-8.4 47.1-8.6 47.1zm-7.6-14.9 7.5 13.9 8.4-44.3-15.9 30.4z"/><path class="st4" d="M423.6 259.7c-.2 0-.3-.2-.2-.4.4-.1 11.4-22.5 12.1-21.8-.1.4 11.1 12.8 10.1 13.1 0 .1-21.9 9-22 9.1zm11.8-21.5L424.2 259l21-8.6-9.8-12.2z"/><path class="st4" d="M414.1 259.8c-.9-.1 4-14.6 3.8-14.9.1-.2.4-.2.5 0l5.6 14.5c.1.2-.1.3-.2.3l-9.7.1zm4-14-3.7 13.6 8.9-.1-5.2-13.5zm27.5 4.9c-.3-.2-11-12.9-10.3-13.2.3.1 23.1-5.3 23.3-4.9.1.4-12.6 17.9-13 18.1zm-9.8-12.8 9.8 12.2 12.2-17-22 4.8zm-156.1-52.1c-.3-.2-16.7-27.7-16.3-28.1 0 0 32.8-11.7 32.8-11.8 1.1 0-16.4 39.7-16.5 39.9zM263.9 158l15.8 27 16.2-38.4-32 11.4zM387 310.5c-.9 0 6.7-24.6 6.5-24.9.1-.2.4-.2.5 0 0 .2 4.7 12.6 4.4 12.8-.2 0-11.2 12.3-11.4 12.1zm6.7-24-6.3 22.9 10.4-11.2-4.1-11.7zM371.4 343c-.7.1 1.6-11.4 1.4-11.7 0-.3 11.8-6.8 11.9-7 1.5-.2-13.3 18.6-13.3 18.7zm1.9-11.5-1.5 10.3 12.2-16.5-10.7 6.2zM229.1 277c-.5-.1-15.5-36.1-15.6-36.5 0-.3 45.5-8 45.7-8.1 1.1.3-30 44.3-30.1 44.6zm-15-36.2 15.1 35.4 29.5-43.2-44.6 7.8zM35.3 334.9c-.1 0-11.7-34.8-10.2-34.1 0 .1 9.2 18.4 9.2 18.5-.2.3 1.8 15.6 1 15.6zM26 303.8l8.8 28.6-1.1-13-7.7-15.6z"/><path class="st4" d="M24.9 301.2c-.1 0-9.2-34.5-7.8-33.8 0 .2 10.1 19 10 19.1-.2.2-1.6 14.7-2.2 14.7zm-7.3-31.8 7.2 30.2 1.8-13-9-17.2z"/><path class="st4" d="M16.9 267.7c-.2.2-5.1-31.2-3.9-30.2 0 .1 6.7 12.5 6.6 12.6-.3.3-2.1 17.7-2.7 17.6zM13.2 239l3.7 26.7 2.2-15.5-5.9-11.2z"/><path class="st4" d="M12.8 237.9c-.6 0 1-21.9.8-22.2 0-.3.4-.3.5-.1 0 .2 2.7 9.2 2.6 9.3-.2.3-3.5 13-3.9 13zm1.2-20.7-.9 18.2 3.1-10.6-2.2-7.6zm133.3 171.2c-.6-.1 16-49.5 16.6-49.1 0 .4 19.4 19.2 18.8 19.7-.3.1-35.1 29.4-35.4 29.4zm16.5-48.5-16 47.5 34.3-28.6-18.3-18.9zm26.6-13.9c-.2-.3-25.3-24.7-24.5-25.3.3.3 29.5-8.8 29.4-7.7-.2.2-4.3 33.1-4.9 33zm-23.9-24.9 23.8 24.1 4.6-31.9-28.4 7.8zm167.9-78.6c-.4-.2-8.9-39.1-8.4-39.4.2-.2 41.5 25.8 41.7 25.8.8.9-33.2 13.2-33.3 13.6zm-8-38.6 8.1 38 32.4-12.8-40.5-25.2z"/><path class="st4" d="M326 183.6c-.1-.3-30.7-37.3-29.7-37.7.3.3 39.3-.5 39.3.3-.2.2-9 37.4-9.6 37.4zm-29.1-37.2 29 36.4 9.2-36.4h-38.2z"/><path class="st4" d="M296.3 146.4c-.4.1-10.4-27.5-10.6-27.7-.4-1 27 3.1 27.2 2.8.9.3-16.3 24.6-16.6 24.9zm-10-27.5 10.1 26.7 16.1-23.7-26.2-3zM91.6 254.4c-1.5-.3 8.3-5.8 8.2-6 .3-.1 7.3.9 7.6.9 1.4.8-15.9 4.9-15.8 5.1zm8.4-5.5-6.9 4.6 13-3.8-6.1-.8z"/><path class="st4" d="m107.3 249.8-7.4-.9c-1.3-.5 13.9-10.3 13.8-10.7.2-.2.5.1.4.3-.3.1-6.3 11.4-6.8 11.3zm-6.7-1.3 6.6.8 5.8-10-12.4 9.2z"/><path class="st4" d="M113.8 238.6c-.2 0-6.2-3.8-6-4.1.2-.2 3.8-10.8 4.3-10.6.5 0 1.7 14.2 1.9 14.5.1.1 0 .3-.2.2zm-5.3-4.1 5.1 3.4-1.5-12.7-3.6 9.3z"/><path class="st4" d="M112.2 224.4c-.2.2-6.7-4.9-6.9-4.9-.4-.2 1.2-8.4 1.1-8.6 0-.2.4-.3.5-.1l5.5 13.3c.1.2-.1.3-.2.3zm-6.5-5.3 5.9 4.3-4.8-11.6-1.1 7.3zM56 243.3c-.2 0-.3-.3-.2-.4.2 0 6.9-6.5 7.1-5.7 0 .2 1.4 2.6.9 2.7-.1.1-7.7 3.5-7.8 3.4zm6.6-5.6-5.2 4.5 6-2.6-.8-1.9z"/><path class="st4" d="M70.5 239.2c0-.2-9.1-1.3-7.8-2.1.2.2 11.4-4 10.9-2.8l-2.8 4.7c-.1.1-.2.2-.3.2zm-6.7-1.9 6.6 1.4 2.4-4-9 2.6z"/><path class="st4" d="M70.5 239.2c-1 .1 2.7-4.9 2.6-5.1.1-.4 11.2 1.4 11.4 1.3 1.5.8-14.1 3.5-14 3.8zm2.9-4.7-2.4 4.1 12.1-2.9-9.7-1.2z"/><path class="st4" d="M91 241.7c-.1-.3-11.9-1-11.2-1.8.2 0 4.6-5.1 4.8-4.5 0 .3 7.7 6.2 6.4 6.3zm-10.4-1.8 9.7 1.2-5.8-5.2-3.9 4zm-33.5 11.3-5.2-.7c-.2 0-7.9-6.7-8-6.7-.8-1.8 13.2 7.2 13.3 6.9.2.1.1.4-.1.5zm-5-1.2 3.8.5-9.6-5.4 5.8 4.9z"/><path class="st4" d="M30.1 245.4c-.1 0-.2-.1-.2-.2l-2.4-9.9c0-.1.1-.3.2-.3.4-.2 6.3 8.4 6.6 8.5.5.5-4.1 1.7-4.2 1.9zm-1.8-9.1 2 8.5 3.4-1.3-5.4-7.2z"/><path class="st4" d="M39.4 255.9c-.3.1-9.3-10.5-9.5-10.6-.1-.1-.1-.3.1-.4.2 0 4.4-1.9 4.3-1.4-.1.3 5.9 12.5 5.1 12.4zm-8.8-10.7 8 9.1-4.6-10.4-3.4 1.3zm-2.8-9.7c-.5.1-3.9-17.6-4.2-17.8-.1-.3.3-.4.5-.2l8.5 11.5c.2.2-4.5 6.3-4.8 6.5zm-3.5-16.8 3.5 15.9 4.2-5.5-7.7-10.4z"/><path class="st4" d="M23.8 217.8c-.2.1-.4-.2-.3-.4.3 0 4.4-14.7 5.1-13.5 3.5 11.2 3.9 6.5-4.8 13.9zm4.7-12.9-4.1 12 6.3-5-2.2-7z"/><path class="st4" d="M28.5 204.4c-1.1-.1 9.1-13.4 9-13.7.1-.2.5-.1.5.2-1.9 11.3 1 8.1-9.5 13.5zm8.8-12.6-8 11.6 6.9-3.6 1.1-8z"/><path class="st4" d="M37.7 191c-1-.1 7.7-16.9 7.5-17.3.1-.2.5-.2.5.1-.1.2.5 9 .3 9.2-.2.1-8.1 8.1-8.3 8zm7.6-16.1-6.8 14.8 7.1-6.9-.3-7.9zm.5 85.2c-.2-.1-7.4-4.2-6.6-4.6.2 0 4.1-2.3 4.1-1.7-.1.2 3.4 6.5 2.5 6.3zm-5.9-4.4 5.3 3.5-2.2-5-3.1 1.5zm22.8-8.2c-9.9-6-8.1-3.5.9-7.9.2-.1.4.1.3.3-.1.1-.8 7.5-1.2 7.6zm-6.1-4.4 5.9 3.7.9-6.7-6.8 3zm26.4 3.1c-.4.1-3-5.8-3.2-6-.1-.2 0-.4.2-.4l11 1.4c.2 0 .3.4.1.5-.1.1-7.9 4.6-8.1 4.5zm-2.5-5.8 2.7 5.2 7.1-4-9.8-1.2z"/><path class="st4" d="M45.5 174.1c-.2 0-.3-.2-.2-.4l6.7-13.4c.1-.2.5-.1.5.1l-.8 10.2c-.2.3-6 3.4-6.2 3.5zm6.3-12.4L46 173.2l5-2.8.8-8.7z"/><path class="st4" d="M52.2 160.7c-.8 0 2-14.3 1.7-14.6 0-.2.3-.3.5-.1 0 .2 3.7 5.1 3.4 5.4-.3.1-5.3 9.3-5.6 9.3zm2.1-13.9-1.8 12.4 4.7-8-2.9-4.4z"/><path class="st4" d="M54.2 146.3c-.6 0 .4-18.6.2-18.9 0-.3.4-.3.5-.1 0 .2 2.9 9.6 2.8 9.8-.2.3-3 9.4-3.5 9.2zm.7-17.2-.4 15.5 2.8-7.4-2.4-8.1z"/><path class="st4" d="M54.7 127.7c-.3.1-8.7-11.2-8.9-11.3-.1-.2 0-.4.3-.4l9 1.1c.1 0 .2.1.2.3l-.4 10.2s-.1.1-.2.1zm-8.1-11.1 7.9 10.2.3-9.2-8.2-1z"/><path class="st4" d="M55 117.6c-13.4-1.8-10.1 1.5-1.7-13.2.9-1.1 1.7 12.9 1.9 12.9.1.2 0 .3-.2.3zm-8.6-1.5 8.3 1-1.4-11.8-6.9 10.8zm61.7 118.8c-.2.1-8.5-7.6-8.7-7.6-.4-.5 5.7-7.8 5.8-8.2.1-.2.4-.1.4.1-.1.3 3.5 15.7 2.5 15.7zM100 227l7.8 6.9-2.5-14.1-5.3 7.2z"/><path class="st4" d="M99.9 248.9c-.5 0-2.1-8.8-2.3-9-.2-.5 10.3-5.2 10.4-5.5.2-.1.5.1.3.4-.2.1-8 14.2-8.4 14.1zm-1.8-9 1.9 8 7.5-12.7-9.4 4.7zm-65.7-10.6c-.6.2-1.4-17-1.6-17.2 0-.2.2-.3.4-.2.1.2 13 7.9 12.9 8.3.1.3-11.4 9-11.5 9.2l-.2-.1zm-1.1-16.8 1.3 16.1 10.8-8.5-12.1-7.6zm23.5 39.7c-9-1.8-8.3 1.5-7.1-6.8 0-.2.3-.3.4-.2-.2.2 8.1 7 6.7 7zm-7.4-1.5 6.7.9-6-5.7-.7 4.8zm52.2-23.4c-.1-.2-14.6-3.8-13.4-4.5l8-4.4c.1-.1.3 0 .3.1-.1.2 6.5 9 5.1 8.8zm-12.7-4.4 12.1 3.7-4.9-7.7-7.2 4zm-7.7 140.8c-.2 0-.3-.2-.2-.3.3-.1 3.2-11.4 3.8-11l14.6 5.7c1.1.9-18.1 5.2-18.2 5.6zm3.6-10.8-3.3 10.2 17-4.9-13.7-5.3z"/><path class="st4" d="m79.2 363.7-15-2c-.9.2 3.9-8.3 3.7-8.4.4-.8 11.2 10.1 11.5 10 .2.2 0 .5-.2.4zm-14.7-2.5 13.9 1.9-10.3-9.4-3.6 7.5zm62.3 54.5c-.4-.2-12.8-29.1-12.9-29.6.1-.4 33.2 1.8 33.4 1.7 1 .5-20.4 27.6-20.5 27.9zm-12.3-29.1 12.3 28.4 20-26.6-32.3-1.8zm-51.7 17.8c-.5.1-5.9-20.8-6.1-21 0-1.5 16.7 11.1 17 10.8.3.7-10.6 9.8-10.9 10.2zm-5.5-20.5 5.6 19.8 10.2-9.2-15.8-10.6zm-30.4-97.1c-.3-.3-10.8-19.3-10-19.5.2.3 15.7 1.5 15.4 2.3-.2.1-4.8 17.3-5.4 17.2zm-9.6-19 9.5 18 4.9-16.2-14.4-1.8z"/><path class="st4" d="M32.1 269.7c-.1-.1-14-20-12.7-19.8.2.2 12.2 4.9 12.2 5.3-.3.2 1.2 14.5.5 14.5zm-12.1-19 11.8 17.9-.7-13.2-11.1-4.7zm14.1 68.9c-.2-.2-8-33.4-7-33.3.1.2 9.3 4.3 9.1 4.7-.3.2-1.4 28.6-2.1 28.6zm-6.8-32.7 6.6 30.5 1.7-26.4-8.3-4.1z"/><path class="st4" d="M35.9 291.2c-.6.1-1.7-18.6-1.9-18.9 0-.2.2-.3.4-.2l10.9 6.4c.1.1.2.3.1.4-.3.1-9.2 12.4-9.5 12.3zm-1.3-18.4 1.6 17.5 8.7-11.5-10.3-6zM13.9 216c-.9 0 4.4-18 4.2-18.3.1-.2.4-.3.5 0 0 .2 3 9.6 2.8 9.8-.3.1-7.2 8.5-7.5 8.5zm4.4-17.3-4 16 6.5-7.5-2.5-8.5z"/><path class="st4" d="M18.3 198c-.2 0-.3-.1-.2-.3l3-13.8c0-.2.3-.3.4-.1l4.3 5.3c.1.1.1.2 0 .3-.1.2-7.2 8.7-7.5 8.6zm3.2-13.5-2.7 12.4 6.6-7.6-3.9-4.8z"/><path class="st4" d="M21.3 184.2c-.7.1 1.1-9.5.9-9.7 0-.5 11.4-2 11.6-2.2 1.5.1-12.4 11.8-12.5 11.9zm1.5-9.5-1.1 8.6 11.4-10.5-10.3 1.9zm119-33.3c.1-.2-10.5-.7-9-1.6.3.1 14.2-4.7 14.3-4 .2.3-5 5.2-5.1 5.5 0 .1-.1.1-.2.1zM134 140l7.7.9 4.2-4.4L134 140z"/><path class="st4" d="M157 140.3c0-.2-11.7-4.1-10.2-4.6.2.3 15.2-1.6 14.6-.6-.3.1-4.1 5.4-4.4 5.2zm-9.1-4.2 9 3.6 3.7-4.6-12.7 1z"/><path class="st4" d="M157 140.3c-1.2.1 4.1-5.4 3.9-5.6.1-.2 19.3-2.9 19.5-3 1.7.9-23.5 8.2-23.4 8.6zm4.2-5.2-3.5 4.4 20-6.9-16.5 2.5z"/><path class="st4" d="m188.5 133.7-8.1-1.5c-.2-.1-.2-.4 0-.5l17.7-7.2c.2-.1.5.2.3.4-.3.2-9.5 9-9.9 8.8zm-7.2-1.8 7.1 1.3 8.4-7.6-15.5 6.3z"/><path class="st4" d="M198.1 125.1c-.2 0-.3-.3-.1-.4.3.1 12.6-9.6 12.7-8.4-1.8 10.9 1.1 6.7-12.6 8.8zm11.9-8.3-11 7.7 10-1 1-6.7zm-78 12.5c-.8-.1 4.7-14.4 4.6-14.8.1-.3.5-.2.5.1.4 10.3 2.6 7.2-5.1 14.7zm4.7-13.4-4.1 12.2 4.6-4.8-.5-7.4z"/><path class="st4" d="M136.8 114.9c-.2 0-.4-.2-.2-.4.3 0 6.1-11.8 6.7-10.9 4.2 9.1 4.7 4.9-6.5 11.3zm6.2-10.7-5.6 9.8 8.3-4.2-2.7-5.6z"/><path class="st4" d="M146 110.1c-.4.1-3-6.2-3.2-6.3-.1-.1 0-.3.1-.3l18.6-4.7c1.8.3-15.6 11-15.4 11.3h-.1zm-2.6-6.2 2.7 5.6 14.2-9.9-16.9 4.3z"/><path class="st4" d="M176.6 107.8c.1-.2-16.6-8.7-14.9-9 0 .4 28.5 5.7 27.2 6.7-.1 0-12.2 2.5-12.3 2.3zm-13.4-8.2 13.5 7.7 10.9-2.1-24.4-5.6z"/><path class="st4" d="M199.7 112.2c0-.1-12.5-7-10.9-7.2l18.6 2.5c.2 0 .3.4.1.5-.2 0-7.6 4.3-7.8 4.2zm-9.8-6.6 9.8 6.1 6.9-3.8-16.7-2.3z"/><path class="st4" d="M199.7 112.2c-1.6-.3 7.7-4.6 7.5-4.7.2 0 18.7 1.8 18.9 1.8 1.6 1.2-26.4 2.5-26.4 2.9zm7.7-4.2-6.6 3.6 22.6-2.1-16-1.5zm-55.6 18.9c1.7-12.4-6.9-17.9 9.2-5.5.7.6-8.9 5.1-9.2 5.5zm-.1-12c.4 2.4 1.2 8.8.7 11.1l8-4.5-8.7-6.6z"/><path class="st4" d="M159.3 132.5c-11-8.4-9.4-4.3 1.4-11.1.2-.1.4.1.4.3l-1.5 10.7c0 .1-.2.1-.3.1zm-7-5.8 6.8 5.2 1.4-9.8-8.2 4.6z"/><path class="st4" d="M159.3 132.5c-.7-.1 1.4-10.6 1.2-11 0-.1.1-.2.3-.2.1 0 13.3 10.2 13.4 10.3 1 1-14.9.7-14.9.9zM161 122l-1.4 10 13.8-.5L161 122z"/><path class="st4" d="M174.1 132.1c-.1 0-.2-.1-.2-.2l-.8-8.8c-.1-.5 8.2-3.2 8.4-3.5.2-.1.4.2.3.4-.3.1-7.4 12.1-7.7 12.1zm-.6-8.9.7 7.8 6.6-10.7-7.3 2.9z"/><path class="st4" d="M181.5 120.1c-8.5-8.8-10.2-5.6 1.3-10.3.2-.1.4.1.3.3-.2.2-1 10.1-1.6 10zm-6.4-6.8 6.2 6 1.3-8.9-7.5 2.9zm-23.8 1.3c-.2 0-.3-.2-.2-.4l5.6-11.2c.1-.2.4-.2.5 0 2.7 11 4.5 7.3-5.9 11.6zm5.5-10.7-5 10 7.1-2.7-2.1-7.3z"/><path class="st4" d="M159.2 111.6c-.1 0-.2 0-.2-.2l-2.3-8.2c0-.1 0-.3.2-.3l23.3-.9c1.4.7-21 9.4-21 9.6zm-2-8.2 2.2 7.6 19.5-8.5-21.7.9zm-4.7-7.2-8.2-.9c-1.4-.8 17.3-7 17.3-7.4 1.7-.2-9.3 8.1-9.1 8.3zm-7.2-1.4 7.1.8 7.9-6.8-15 6z"/><path class="st4" d="M152.5 96.2c-1.4-.2 9.2-8.1 9-8.3.2-.2 20.6.3 20.8.3 1.5.9-29.9 7.6-29.8 8zm9.2-7.9-8.3 7.1 27-6.8-18.7-.3z"/><path class="st4" d="M193.6 98.5c0-.2-12.7-10.2-11.2-10.4 0 .4 21.7 4.6 20.7 5.6-.2 0-9.4 4.9-9.5 4.8zm-10.4-9.7 10.3 9.1 8.6-4.4-18.9-4.7zm29.4 11.9c-.1-.2-10.6-7.4-8.9-7.4l15.6 5.6c.2.1.2.4 0 .5-.2 0-6.4 1.3-6.7 1.3zm-7.6-6.4 7.7 5.8 5.6-1.1-13.3-4.7zm-21.1 13.4c0-.1-13.5-7.4-12-7.7.1.4 22.1 1.8 21.1 2.9-.1 0-8.9 4.9-9.1 4.8zm-10.8-7.1 10.9 6.5 8.2-4.4-19.1-2.1z"/><path class="st4" d="M207.4 108c-.1-.4-24.5.5-23.6-.8.3 0 8.9-5 9.2-4.8-.1.3 16.1 5 14.4 5.6zm-22.5-.8 21 .3-12.9-4.6-8.1 4.3zm-23-1.6c.1-.2-13.7-4.2-12-4.8.1.4 23.2-1.8 22.2-.4-.2.1-10 5.3-10.2 5.2zm-10.7-4.3 10.7 3.8 9-4.6-19.7.8z"/><path class="st4" d="M157.5 117.3c-.2.1-11.5-7.1-11.6-7.1-.1-.1-.2-.2-.1-.3.1-.2 15.8-4.5 16-4.6.2-.1.4.2.2.3-.1.1-4.2 11.7-4.5 11.7zm-10.9-7.3 10.7 6.7 4.1-10.9-14.8 4.2zm26.7 13.3-12.4-1.4c-.2 0-.3-.3-.2-.4l7.5-8.3c.1-.1.3-.1.4.1-.2.1 5.8 10.1 4.7 10zm-11.9-1.9 11.5 1.3-4.6-9-6.9 7.7zm13.3-7.9c0-.1-13.2-8-11.5-8.1.2.4 17.5 1.9 16.9 2.9-.2 0-5.1 5.4-5.4 5.2zm-10.5-7.5 10.4 6.9 4.7-4.7-15.1-2.2z"/><path class="st4" d="M168.4 113.6c0-.2-10.5-1.6-9.2-2.4.2.3 15.2-5.7 14.6-4.3-.3.1-5.1 6.8-5.4 6.7zm-8.2-2.3 8.1 1.7 4.6-5.8-12.7 4.1zm-3.2 29c-1.6-.9 23.4-8.1 23.3-8.5.3-.1.5.3.2.4l-8.2 6.9c-.1.2-15.2 1.2-15.3 1.2zm22.2-7.6-20.3 7 13.2-1 7.1-6zM106.3 94c-.5.1-4.4-13.2-4.6-13.4-.2-.5 13-8.1 13.1-8.4 1.1-.3-8.2 21.7-8.5 21.8zm-4.1-13.3 4.1 12.4 8.1-20-12.2 7.6z"/><path class="st4" d="M106.3 94.2c-.1 0-.1 0-.2-.1-.1 0-.2-.2-.1-.5.4-.1 8.2-21.9 9-21.4.1.4 9.3 7.3 8.9 7.9.2.2-18.4 15.7-17.6 14.1zm8.7-21.3-8.4 20.7c1.9-1 11-8.6 16.8-13.6l-8.4-7.1z"/><path class="st4" d="M123.8 80.2c-.2 0-.3-.2-.2-.4l4.9-9c.1-.1.2-.2.3-.1l10.8 5.7c1.1.8-15.8 3.6-15.8 3.8zm5-8.9-4.5 8.3 14.4-3.1-9.9-5.2z"/><path class="st4" d="M139.5 76.9c-.1 0-.3-.1-.2-.3.1-.2.2-11.7.4-11.8.4 0 18.6 1.6 18.7 2.3-.2.4-18.7 9.6-18.9 9.8zm.5-11.6-.3 10.9 17.5-9-17.2-1.9z"/><path class="st4" d="M158 67.3c-1.2.1 5.8-8.5 5.6-8.6.2-.4 13.5 3.6 13.7 3.5 1.5.8-19.3 4.8-19.3 5.1zm6-8.2-5.3 7.6 17.7-4.3-12.4-3.3z"/><path class="st4" d="M202 63.4c-.2-.4-25.5 0-24.8-1.1.3-.1 6.5-6.7 6.9-6.5-.1.2 19.6 7 17.9 7.6zm-24.1-1.2 22.6.7-16.5-6.6-6.1 5.9z"/><path class="st4" d="M225.4 68.1c0-.4-24.6-4.1-23.4-5.2.2 0 11-4.1 11.2-3.9-.1.3 13.8 8.7 12.2 9.1zm-22.5-5 21.3 4.3-11.2-7.9-10.1 3.6zm-74.2 8.1c-.2 0-.3-.3-.2-.4.3.1 10.9-13.9 11.2-12.7-.1.2.6 7 .2 7.1-.2.1-11.1 6-11.2 6zm10.5-12.4-9.5 11.3 9.8-5.2-.3-6.1z"/><path class="st4" d="M114.9 72.7c-.2 0-.3-.3-.2-.4.4 0 10.7-10.8 11.1-10-.1.3 3.6 8.9 2.9 8.9l-13.8 1.5zm10.6-9.9-9.9 9.3 12.7-1.4-2.8-7.9zm32.6 4.5-18.3-2.1c-1.4-.8 16.1-5.2 16-5.5.5-.4 2.5 7.2 2.6 7.3.1.3-.2.5-.3.3zM141 64.9l16.7 1.9-2.1-6.5-14.6 4.6z"/><path class="st4" d="M103.6 73.1c-.2 0-.3-.3-.1-.5.3.3 16.7-11.2 16.6-9.6-6.9 12.8-2.2 9.1-16.5 10.1zm15.6-9.5-14.7 9 10.2-.4 4.5-8.6zm36.5-3.4c0-.3-17.6-1.3-16.4-2.3.3.1 10.7-4.2 10.9-3.9 0 .2 6.9 6.2 5.5 6.2zM140.5 58l14.6 1.6-5.1-5.2-9.5 3.6z"/><path class="st4" d="M155.7 60.2c-1.3-.1 6.2-6.7 6.1-6.9.1-.1.4-.1.4.1 2.9 8.1 3.1 4.9-6.5 6.8zm6.2-6.2-5.5 5.7 7.1-1-1.6-4.7z"/><path class="st4" d="M177.4 62.7c-.1-.2-14.6-3.3-13.6-4l10-6.8c.1-.1.3 0 .4.1l3.5 10.3c-.1.2-.2.4-.3.4zm-12.9-4L177 62l-3.2-9.6-9.3 6.3zm37.5 4.7c-.1-.3-19.3-7-18.1-7.6.3.1 14.2-2.9 14.3-2.4-.2.2 4.7 10.1 3.8 10zM184.9 56l16.7 6.6-3.7-9-13 2.4zm58.7 14.1c-.1-.4-19.1-1.3-18.3-2.4.3 0 5.6-4.9 5.9-4.5-.2.2 14 6.6 12.4 6.9zM226 67.6l16.3 1.8-11.2-5.9-5.1 4.1z"/><path class="st4" d="M184 56.2c-.3-.2-10.5-3.6-10.4-4.2.1-.4 10.7-.2 10.9-.3.2 0 .3.1.2.3 0 0-.3 4.5-.7 4.2zm-8.8-3.9 8.6 3.3.5-3.5-9.1.2zm-49.6 10.3c-1.4-.1 8-7.2 7.8-7.4.3-.2 5.9 2.7 6.2 2.7 1.2.7-13.9 4.6-14 4.7zm8-6.9-7 6.1 12.1-3.7-5.1-2.4zm-94.2 50.9c-.1.1-9.7-4.2-9.8-4.2-.4-.1-.2-7.8-.4-8 0-.2.3-.3.4-.2-.1.2 11 12.4 9.8 12.4zM30 102l8.6 3.7-8.8-10.6.2 6.9z"/><path class="st4" d="M46 116.5c-.4.1-6.6-9.9-6.8-10-.1-.1 0-.4.2-.4.2.3 14.9-2.5 14.4-1.4-.2 0-7.4 12-7.8 11.8zm-6.2-10 6.2 9.3 7-11-13.2 1.7zm-10.1-4.1c-.2-.2-13.3-11.2-12.9-11.7.2-.4 12.6 3.5 12.8 3.4.4 0 .3 7.8.4 8 0 .2-.2.3-.3.3zm-11.8-11 11.5 10.2-.2-7-11.3-3.2z"/><path class="st4" d="M36.4 112.7c-.1-.2-14.2-5-13.4-5.7.3.1 6.7-5.8 7-5l6.7 10.3c.1.2-.1.5-.3.4zm-12.8-5.5 12.2 4.7-6.1-9.5-6.1 4.8z"/><path class="st4" d="M9.7 107.9c-.1 0-.3-.1-.2-.3l1.1-7.8c0-.1.1-.2.3-.2.1 0 12.3 7.3 12.4 7.4 1.1 1.1-13.6.7-13.6.9zm1.3-7.5-1 7.1 12.2-.4-11.2-6.7z"/><path class="st4" d="M2.3 116.7c-1.1-.1 8.4-16.6 8.2-16.9.1-.2.5-.1.5.2-.1.2-1 7.7-1.1 7.9-.2.1-7.2 8.9-7.6 8.8zm8-15.3-6.8 13.3 5.9-7 .9-6.3z"/><path class="st4" d="M23.1 107.5c-.2.1-12.3-7.3-12.5-7.3-.7-.2 6.1-9.2 6-9.5.1-.2.4-.1.5.1-.1.3 6.9 16.7 6 16.7zm-12-7.6 11.5 6.8-5.7-15.3-5.8 8.5z"/><path class="st4" d="M4.2 103.4c-.2 0-.3-.2-.2-.4l4.4-9.4c.1-.2.4-.2.5 0 3 8.9 3.5 5.4-4.7 9.8zm4.4-9-3.8 8.2 5.8-2.8-2-5.4zm35.8 48.7c-.2 0-9-8.3-9.2-8.4-.2-.2 0-.5.3-.4-.1.3 18.6 7.2 17.1 7.8l-8.2 1zm-7.7-7.8 7.8 7.3 7.2-.9-15-6.4z"/><path class="st4" d="M32.7 139.7c0-.2-10.5-2.5-9.2-3.2l11.9-2.2c.2 0 .4.2.2.4-.1.1-2.7 5-2.9 5zm-8-2.9 7.9 2.3 2.4-4.3-10.3 2zM24 150c-.2 0-3.2-3-3.1-3.2l1.4-10.2c0-.3.5-.3.5 0-.1.3 1.9 13.4 1.2 13.4zm-2.5-3.2 2.3 2.3-1.1-10.4-1.2 8.1z"/><path class="st4" d="M22.5 164.2c-.6.1-1.4-17.1-1.6-17.3 0-.2.3-.4.4-.2.1.2 3 2.8 2.9 3.1-.2.2-1.1 14.5-1.7 14.4zm-1-16.7 1.1 13.7 1.2-11.4-2.3-2.3zm3.6 24.1c-.1 0-.2 0-.2-.2l-1.6-7.3c0-.2.1-.3.3-.3 11.5 4 15.6 1.1 1.5 7.8zm-1.3-7.2 1.5 6.6 8.1-4-9.6-2.6z"/><path class="st4" d="M35.5 170.9c-.2.2-1.9-4.2-1.5-4.1.3.1 11.4-4 11.5-3.3.1.4-9.8 7.1-10 7.4zm-1-3.8 1.1 3.1 8.3-6-9.4 2.9zm-11.7-33.8c-.3-.2-5.4-1.7-4.4-2.2l12.7-3.2c.2 0 1.4-.8 1.5-.4.1.1 0 .3-.1.3-.2 0-9.6 5.5-9.7 5.5zm-3.5-1.9 3.5 1.4 7.2-4.1-10.7 2.7z"/><path class="st4" d="M42.2 132.3c.1-.2-11.5-4.5-9.8-4.9l13.9 2.3c.2 0 .3.4.1.5-.2-.1-4.1 2.2-4.2 2.1zm-8-4.2 8 3.6 3.3-1.8-11.3-1.8z"/><path class="st4" d="M52.8 133.5c0-.3-11.8-.8-10.7-1.7.2 0 4.1-2.4 4.3-2.2-.1.2 8 3.5 6.4 3.9zm-9.8-1.7 8.5 1-5.2-2.7-3.3 1.7zm3.8 26c-.5.1-2.3-8.1-2.5-8.3-.2-.2 4.5-7.4 4.5-7.6.1-.2.5-.1.5.2-.4.2-2 15.8-2.5 15.7zm-2-8.4 1.9 6.9 1.9-13.1-3.8 6.2z"/><path class="st4" d="M40.8 164.9c-.7.3.9-7 .7-7.1-.1-.5 5.1-.3 5.2-.5.2 0 .4.2.2.4-.1.1-5.6 7.5-6.1 7.2zm1.2-6.8-.8 5.8 5-6-4.2.2zm-8 7.5c-.3-.2-6-4.9-5.8-5.3-.1-.5 6.2 1.7 6.3 1.6.5 0-.3 3.2-.3 3.4.1.2 0 .3-.2.3zm-4.5-4.6 4.4 3.9.3-2.5-4.7-1.4z"/><path class="st4" d="M28.5 160.7c-.6 0-1.1-12.8-1.3-13.1 0-.2.3-.3.4-.2 0 .2 4.3 4.5 4 4.8-.2.2-2.9 8.5-3.1 8.5zm-.8-12.4.9 10.9 2.5-7.1-3.4-3.8z"/><path class="st4" d="M27.4 147.9c-.2 0-.3-.1-.2-.3l3-11.9c0-.3.4-.3.5 0 0 .2.7 6.2.7 6.4-.2.1-3.7 5.8-4 5.8zm2.9-10.8-2.3 9.1 2.8-4.3-.5-4.8zm4.2 25.4c-.1 0-.2-.1-.2-.2l-1.2-9.5c-.2-1.2 8.7 5 8.9 4.8.7.7-7.4 4.5-7.5 4.9zm-.9-9.3 1.1 8.6 6.6-4-7.7-4.6z"/><path class="st4" d="M33.3 153c-.9.2 3.8-10.2 3.7-10.4.1-.2.3-.2.4-.1l7.3 6.7c.8.7-11.4 3.6-11.4 3.8zm4-9.9-3.6 9.2 10.3-3-6.7-6.2z"/><path class="st4" d="M37.2 142.9c-.3 0-5.2-7.3-5.4-7.4-.7-1.1 11.9 1.8 12 1.5.2 0 .3.3.1.4-.2.2-6.4 5.7-6.7 5.5zm-4.6-7.2 4.7 6.6 5.9-4.8-10.6-1.8zm-18.1-3.4c-.2-.3-10-7.3-8.8-7.5l8.3-.4c.1 0 .2.1.3.2-.1.2.7 7.8.2 7.7zm-8.1-7 7.8 6.2-.4-6.5-7.4.3z"/><path class="st4" d="M5.7 125.3c-.4.1-3.4-8.6-3.6-8.8-.1-.2.2-.5.4-.3-.1.3 12.9 8.3 11.6 8.7l-8.4.4zm-2.8-8.2 3 7.7 7.4-.3-10.4-7.4zm14.3 23.4c-.2 0-.3-.1-.2-.3.2-.2.9-9.6 1.6-9.2.1.2 4.9 1.6 4.5 2.1-.2.1-5.6 7.6-5.9 7.4zm1.5-8.8-1.1 7.7 4.8-6.3-3.7-1.4z"/><path class="st4" d="M17.3 149.2c-.1 0-.2-.1-.2-.2l-.1-8.7c0-.2.3-.3.5-.2 0 .1 2.2 2.5 1.9 2.6l-1.8 6.2c-.1.2-.2.3-.3.3zm.2-8.2.1 6.3 1.3-4.5-1.4-1.8zm5.1 33.7c-.2.1-3.7-3.8-3.9-3.9-.6-1 4.2.2 4.4.1.1 0 .2.2.2.3-.1.1-.4 3.6-.7 3.5zm-3-3.7 2.8 3 .4-2.6-3.2-.4zM.2 103.7c-1-.1 8.4-20.8 8.2-21.1.1-.3.6-.2.5.2l-4.5 20.4c.1.4-4 .4-4.2.5zm7.6-18.2L.6 103.2l3.4-.3 3.8-17.4z"/><path class="st4" d="M2.3 116.7c-.6.1-2.1-13-2.3-13.2-.3-.5 4-.5 4.2-.6.2 0 .3.1.3.3-.3.2-1.6 13.5-2.2 13.5zm-1.8-13 1.8 11.1 1.6-11.4-3.4.3zm8.2-20.8c-.5.2 3.3-29 4.1-27.8 0 .2 2.9 14.2 2.9 14.4-.4.3-6.5 13.7-7 13.4zm3.8-26.2L9.1 81.2 15 69.5l-2.5-12.8z"/><path class="st4" d="M12.5 55.5c-.8.1 1.7-24.1 1.5-24.3 0-.3.4-.3.5 0 0 .1 3.1 11.2 3 11.3-.3.1-4.6 13.1-5 13zm1.8-22.8-1.5 20.8 4.1-11.1-2.6-9.7z"/><path class="st4" d="M14.2 31.4c-.8 0 5.9-30.9 5.7-31.2 0-.3.5-.3.5 0 0 .2 1.7 21.6 1.5 21.8-.2.1-7.4 9.6-7.7 9.4zM20 2.2l-5.4 28.1 6.8-8.5L20 2.2zm4.4 68.4c-.2-.2-9.6-.4-9.3-1.1.3.1 4.9-16.7 5.6-15.2l4 16.1c0 .1-.1.2-.3.2zm-8.8-1.3 8.4.8-3.7-14.9-4.7 14.1z"/><path class="st4" d="M17.2 42.6c-.8 0 4.4-20.5 4.2-20.8 0-.2.4-.3.5 0l6.2 13.9c0 .1 0 .2-.1.3-.2 0-10.6 6.6-10.8 6.6zm4.6-20-4.2 19.2 10-6.2-5.8-13zm3.6 59c-.1 0-.2-.1-.2-.2.1-.2-1.3-11-1-11.2.2-.3 13.5 1.8 13.7 1.7 1.2.3-12.4 9.4-12.5 9.7zm-.8-11 1 10.2 11.5-8.6-12.5-1.6z"/><path class="st4" d="M31.3 55.7c-.5 0-3.5-19.8-3.7-20-.2-.6 15.7-4.7 15.8-5 1.2.2-11.9 24.9-12.1 25zm-3.1-19.8 3.3 18.8 11.6-23.2-14.9 4.4z"/><path class="st4" d="M52.2 50.5c-.4.1-8.7-19.2-8.9-19.3-.3-.6 12.4-6.8 12.5-7.2 1-.1-3.3 26.3-3.6 26.5zm-8.3-19.3 8.2 18.2 3.5-24.6-11.7 6.4z"/><path class="st4" d="M52.2 50.5c-.8 0 3.7-26 3.5-26.3.2-1 18 10.1 18.4 10 .6.6-21.7 15.9-21.9 16.3zm3.9-25.8-3.6 25 20.9-15.2-17.3-9.8z"/><path class="st4" d="M55.9 24.5c-.2-.3-16.9-13.2-16.6-13.8.1-.2 26.1-5.7 26.3-5.7 1 0-9.4 19.3-9.7 19.5zM40.1 11l15.8 12.9 9.3-18.3L40.1 11zm25.8 56.1c-.2-.3-23-2-22.6-2.9.4 0 8.5-14.9 9.2-14.2-.2.5 14.7 16.9 13.4 17.1zm-22-3 21.4 2.4-13-15.9-8.4 13.5zm45.3-14.8c-.3-.3-15.7-14.5-15.5-15.1 0-.1 20.4-11.7 20.4-11.8 1.1-.1-4.7 26.7-4.9 26.9zM74.3 34.5 89 48.6l4.9-25.4-19.6 11.3zM57.7 175.6c-.2.2-6.3-4.8-6.5-4.8-.1-.1-.1-.2-.1-.3l5-9.7c1-1.2 1.6 14.5 1.9 14.5 0 .2-.2.3-.3.3zm-6-5.1 5.7 4.3-1.3-13-4.4 8.7z"/><path class="st4" d="M45.8 183.1c-1 0 5.4-12.3 5.2-12.6.1-.9 6.6 4.7 6.8 4.6.7.5-11.8 7.7-12 8zm5.6-12.1-5 11.2 10.8-6.9-5.8-4.3zm-7.6 49.3c-.1.1-12.8-8.1-12.9-8.1-.2-.1-.1-.4.1-.5l11.2-2.8c.1 0 .3.1.3.2-.3.3 2.1 11.4 1.3 11.2zm-12.2-8.2 11.8 7.5-1.5-10.1-10.3 2.6zm2.5 31.8c-.6.1-1.7-14.5-2-14.8 0-.2.2-.4.4-.2 0 .3 8.2 5.9 7.6 6.3-.1.2-5.8 8.6-6 8.7zm-1.4-14.3 1.6 13.3 5.4-7.8-7-5.5z"/><path class="st4" d="M40 235.3c-.9 0 3.8-15 3.5-15.3 0-.2.4-.3.5-.1l6.1 11.2c.1.1 0 .3-.1.4-.2 0-9.9 3.9-10 3.8zm3.8-14.5-3.5 13.9 9.1-3.6-5.6-10.3zm.2-24.4c-.3-.2-6.9-5.4-6.4-5.8.2.2 8.5-9.1 8.6-7.7-.3.2-1.6 13.6-2.2 13.5zm-5.9-5.6 5.7 4.9 1.7-12.1-7.4 7.2zm19.5-39.3c-.7.1-.1-14.1-.3-14.3 0-.2.2-.3.4-.2 0 .2 7.4 5.5 6.8 5.8-.2 0-6.7 8.7-6.9 8.7zm.2-13.8.1 12.8 6.1-7.9-6.2-4.9z"/><path class="st4" d="M52.1 190.6c-.3-.2-6.8-7.7-6.4-8 .2.2 12.4-8.6 12.2-7.2-.2.2-5.4 15.3-5.8 15.2zm-5.9-7.7 5.8 7 5.2-13.9-11 6.9z"/><path class="st4" d="M61.2 189.1c-.5 0-3.5-13.5-3.7-13.7 0-.1 0-.3.2-.3l10.4-2.7c.2-.1.4.2.3.3-.3.2-6.8 16.5-7.2 16.4zM58 175.5l3.3 12.5 6.4-15.1-9.7 2.6zm42.3 38c-.5.1-.7-7.6-.8-7.8-.1-1.2 7.1 5.2 7.3 5 .7.6-6.3 2.6-6.5 2.8zm-.3-7.3.5 6.7 5.6-2.1-6.1-4.6zm113.7 34.7c-.2-.3-18.2-39.7-17.4-39.9.2.4 37.7 2.9 37.4 3.9-.3.1-19.6 36.1-20 36zm-17-39.4 17 38.6L233 205l-36.3-3.5z"/><path class="st4" d="M233.5 205c-.2.1-27.4-25.9-27.5-25.9-.7-.8 33.7-14.5 33.8-14.9.9-.2-6.1 40.6-6.3 40.8zm-26.9-26 26.7 25.3 6.3-39.5-33 14.2zM166 301.2c-.5-.1 6.2-34.9 7-34.5l22.4 26.1c.5.9-29.2 8-29.4 8.4zm6.9-33.8-6.6 33.2 28.4-7.8-21.8-25.4zm-25.6 121c-.3-.3-22.9-23.9-22.5-24.5.4.3 39.1-25.9 39.1-24.4-.2.2-16 49-16.6 48.9zm-21.9-24.2 21.8 23.5 16.1-47.6-37.9 24.1zm257.7-156.1c-.4-.1 2.7-44.2 3.6-43.6l18.2 26c.4.6-21.5 17.3-21.8 17.6zm3.6-42.7-3.3 42 21-16.7-17.7-25.3zm-70.1-67.9c-.3-.1-3.8-30.2-3-30 .1.3 26.1 11.5 25.6 12.2-.1.1-22.4 17.8-22.6 17.8zm-2.8-29.4 3 28.7 21.8-17.2-24.8-11.5z"/><path class="st4" d="M367.6 209.4c-.8.1 2.4-26.8 2.2-27.1.7-1.2 13.5 25.6 13.7 25.7-.2.4-15.7 1.2-15.9 1.4zm2.5-26.2-2.3 25.6 14.9-1.2-12.6-24.4zM166 301.2c-.2-.3-29.1-17.7-28.3-18.4l35-16.2c1.1-.1-6.6 34.2-6.6 34.5l-.1.1zM138.4 283l27.5 17.4 6.6-33.2-34.1 15.8zm-94.6-62.7c-.6.1-1.7-10.9-1.9-11.1 0-.2.2-.4.4-.3 15.6 9.2 19.9 5.6 1.5 11.4zm-1.3-10.7 1.5 10.1 11.2-3.6-12.7-6.5zm18.7-20.5c-1-.1 6.9-16.2 6.7-16.6.1-.2.4-.2.5 0l5 12.4c.1.1 0 .3-.2.3-.2.1-11.8 3.8-12 3.9zm6.9-15.8-6.4 15.1 11.1-3.5-4.7-11.6z"/><path class="st4" d="M172.8 267.1c-.5-.1-11.3-32.1-11.2-32.5.2-.4 36.4 11.1 36.6 11 .8.6-25.3 21.2-25.4 21.5zm-10.7-31.9 10.8 31.3 24.7-20.5-35.5-10.8zM277.6 70.5c-1.1-.5 30.8-21.5 30.9-21 0 .3 5.4 18.1 5.3 18.4-.1.2-36.1 2.5-36.2 2.6zm30.5-20.6-29.6 20 34.7-2.5-5.1-17.5z"/><path class="st4" d="M277.6 70.5c-.4.1-11.7-33.2-11.9-33.3-.3-.9 28.9 0 29.1-.3.9.3-17.1 33.2-17.2 33.6zm-11.3-33.2 11.3 32.3 16.8-32.2-28.1-.1zM55.4 338.2c-.1-.1-8.5-3.8-8.1-4.2.1-.1 11.8-9.9 11.8-10 .2-.1.5.1.4.3-.1.2-3.7 13.9-4 14l-.1-.1zM48 334l7.3 3.6 3.6-12.7L48 334z"/><path class="st4" d="M62.9 341.8c-.6.1-3.6-17.4-3.9-17.6 0-.2.2-.4.3-.3.1.3 14.6 5.8 14.3 6.4-.1.2-10.3 11.5-10.7 11.5zm-3.2-17.2 3.4 16.4 9.9-10.6-13.3-5.8z"/><path class="st4" d="M86.6 338.1c-.1.1-13.1-7.6-13.2-7.6a.3.3 0 0 1 0-.4l12.1-9.5c.2-.1.4 0 .4.2-.4.3 1.6 17.6.7 17.3zm-12.7-7.9 12.4 7.2-1-16.1-11.4 8.9z"/><path class="st4" d="M99 335.8c-.3 0-13.4-14.7-13.6-14.8-.5-1.3 28.8 2.7 29 2.3.2 0 .3.3.1.5-.2 0-15.3 12.1-15.5 12zm-12.8-14.7L99 335.2l14.7-11.5-27.5-2.6z"/><path class="st4" d="M73.5 330.5c-.1.1-14.1-6.1-14.2-6.1-1.1-1.2 26.2-3.4 26.3-3.8 1.4 0-12.2 9.9-12.1 9.9zm-13.2-6.3 13.2 5.7 11.2-8.8-24.4 3.1z"/></g></svg>